<?xml version="1.0" encoding="UTF-8"?>
<svg version="1.1" xmlns="http://www.w3.org/2000/svg" width="48" height="48">
<path d="M0 0 C1.99954746 -0.04254356 4.00041636 -0.04080783 6 0 C6.33 0.33 6.66 0.66 7 1 C6.979375 1.886875 6.95875 2.77375 6.9375 3.6875 C6.81069829 7.03251497 6.81069829 7.03251497 8.1875 10.0625 C9 13 9 13 7.625 15.625 C7.08875 16.40875 6.5525 17.1925 6 18 C6 19.32 6 20.64 6 22 C6.99 22.33 7.98 22.66 9 23 C9.05399736 24.45792884 9.09279177 25.91642712 9.125 27.375 C9.14820313 28.18710937 9.17140625 28.99921875 9.1953125 29.8359375 C9 32 9 32 7 34 C7 34.99 7 35.98 7 37 C6.01 37 5.02 37 4 37 C4.66 37.33 5.32 37.66 6 38 C6 38.66 6 39.32 6 40 C4.35 40 2.7 40 1 40 C0.67 39.34 0.34 38.68 0 38 C-2.475 38.495 -2.475 38.495 -5 39 C-5 38.34 -5 37.68 -5 37 C-5.99 37.495 -5.99 37.495 -7 38 C-9.6723621 38.13415472 -12.32250488 38.04318541 -15 38 C-15 37.01 -15 36.02 -15 35 C-15.5775 35.185625 -16.155 35.37125 -16.75 35.5625 C-19.20692525 36.04023546 -20.64397534 35.75729364 -23 35 C-23 33.68 -23 32.36 -23 31 C-22.34 31 -21.68 31 -21 31 C-21 29.35 -21 27.7 -21 26 C-21.66 26 -22.32 26 -23 26 C-23 24.68 -23 23.36 -23 22 C-21.02 21.67 -19.04 21.34 -17 21 C-17 20.34 -17 19.68 -17 19 C-18.98 18.67 -20.96 18.34 -23 18 C-23 14.37 -23 10.74 -23 7 C-21.02 7 -19.04 7 -17 7 C-17 5.35 -17 3.7 -17 2 C-15.68 2 -14.36 2 -13 2 C-13 2.66 -13 3.32 -13 4 C-12.34 4 -11.68 4 -11 4 C-11 3.34 -11 2.68 -11 2 C-8.36 1.67 -5.72 1.34 -3 1 C-3 1.66 -3 2.32 -3 3 C-2.34 3 -1.68 3 -1 3 C-0.67 2.01 -0.34 1.02 0 0 Z M4 2 C3.67 2.66 3.34 3.32 3 4 C3.66 4 4.32 4 5 4 C4.67 3.34 4.34 2.68 4 2 Z M-6 4 C-6 4.66 -6 5.32 -6 6 C-6.99 6.495 -6.99 6.495 -8 7 C-7.01 7 -6.02 7 -5 7 C-5.33 6.01 -5.66 5.02 -6 4 Z M-21 11 C-21 11.99 -21 12.98 -21 14 C-20.34 14 -19.68 14 -19 14 C-19 13.01 -19 12.02 -19 11 C-19.66 11 -20.32 11 -21 11 Z M-7 12 C-7 13.65 -7 15.3 -7 17 C-4.58354218 17.16687448 -4.58354218 17.16687448 -2 17 C-1.34 16.34 -0.68 15.68 0 15 C0 14.01 0 13.02 0 12 C-2.31 12 -4.62 12 -7 12 Z M-19 14 C-19 14.66 -19 15.32 -19 16 C-18.34 16 -17.68 16 -17 16 C-17 15.34 -17 14.68 -17 14 C-17.66 14 -18.32 14 -19 14 Z M-7 23 C-7 24.65 -7 26.3 -7 28 C-4.69 28 -2.38 28 0 28 C0 26.68 0 25.36 0 24 C-1.12534105 22.64381501 -1.12534105 22.64381501 -4.0625 22.9375 C-5.031875 22.958125 -6.00125 22.97875 -7 23 Z M-19 24 C-19 24.66 -19 25.32 -19 26 C-18.34 26 -17.68 26 -17 26 C-17 25.34 -17 24.68 -17 24 C-17.66 24 -18.32 24 -19 24 Z " fill="#2095F2" transform="translate(31,4)"/>
<path d="M0 0 C0.66 0 1.32 0 2 0 C2 0.66 2 1.32 2 2 C1.34 2 0.68 2 0 2 C0 1.34 0 0.68 0 0 Z " fill="#2096F3" transform="translate(10,23)"/>
</svg>
