<?xml version="1.0" encoding="UTF-8"?>
<svg version="1.1" xmlns="http://www.w3.org/2000/svg" width="48" height="48">
<path d="M0 0 C3 0.125 3 0.125 4 1.125 C4.04080783 3.12458364 4.04254356 5.12545254 4 7.125 C3.01 7.455 2.02 7.785 1 8.125 C1 9.115 1 10.105 1 11.125 C1.56847656 11.12757812 2.13695313 11.13015625 2.72265625 11.1328125 C8.5388956 11.42410996 11.35885676 12.62940362 15.296875 16.9453125 C15.85890625 17.33460937 16.4209375 17.72390625 17 18.125 C18.65 17.795 20.3 17.465 22 17.125 C22 23.065 22 29.005 22 35.125 C21.01 35.125 20.02 35.125 19 35.125 C18.67 36.775 18.34 38.425 18 40.125 C11.93643966 42.24724612 6.39130517 42.42654278 0 42.375 C-1.43859375 42.38660156 -1.43859375 42.38660156 -2.90625 42.3984375 C-8.3302543 42.38353639 -12.8740273 41.91909045 -18 40.125 C-18.33 38.475 -18.66 36.825 -19 35.125 C-19.99 35.125 -20.98 35.125 -22 35.125 C-22 29.185 -22 23.245 -22 17.125 C-20.35 17.455 -18.7 17.785 -17 18.125 C-15.21518197 16.98259078 -15.21518197 16.98259078 -13.75 15.25 C-9.83134295 11.51300255 -6.27817862 11.14893732 -1 11.125 C-1 10.135 -1 9.145 -1 8.125 C-1.99 7.795 -2.98 7.465 -4 7.125 C-4.04254356 5.12545254 -4.04080783 3.12458364 -4 1.125 C-3 0.125 -3 0.125 0 0 Z " fill="#7D56C1" transform="translate(24,1.875)"/>
<path d="M0 0 C-3 2 -3 2 -5.9375 3.625 C-9.87899452 6.68166922 -11.64281068 9.20365031 -13 14 C-13.6031853 19.00288987 -13.86888085 23.96502465 -14 29 C-14.99 28.67 -15.98 28.34 -17 28 C-17 26.68 -17 25.36 -17 24 C-17.99 24 -18.98 24 -20 24 C-20 18.06 -20 12.12 -20 6 C-17.525 6.495 -17.525 6.495 -15 7 C-13.01038516 5.87344631 -13.01038516 5.87344631 -11.375 4.125 C-7.71196774 0.56141658 -5.1037372 -0.13793884 0 0 Z " fill="#6F4AB9" transform="translate(22,13)"/>
<path d="M0 0 C2.5 0.25 2.5 0.25 4.5 2.25 C4.75 4.75 4.75 4.75 4.5 7.25 C2.5 9.25 2.5 9.25 0 9.5 C-2.5 9.25 -2.5 9.25 -4.5 7.25 C-4.75 4.75 -4.75 4.75 -4.5 2.25 C-2.5 0.25 -2.5 0.25 0 0 Z " fill="#E8DEC1" transform="translate(32.5,25.75)"/>
<path d="M0 0 C2.5 0.25 2.5 0.25 4.5 2.25 C4.75 4.75 4.75 4.75 4.5 7.25 C2.5 9.25 2.5 9.25 0 9.5 C-2.5 9.25 -2.5 9.25 -4.5 7.25 C-4.75 4.75 -4.75 4.75 -4.5 2.25 C-2.5 0.25 -2.5 0.25 0 0 Z " fill="#E8DEC1" transform="translate(15.5,25.75)"/>
<path d="M0 0 C3.4375 0.8125 3.4375 0.8125 5.4375 3.8125 C5.25 7.375 5.25 7.375 4.4375 10.8125 C1.4375 12.8125 1.4375 12.8125 -2.125 12.625 C-5.5625 11.8125 -5.5625 11.8125 -7.5625 8.8125 C-7.375 5.25 -7.375 5.25 -6.5625 1.8125 C-3.5625 -0.1875 -3.5625 -0.1875 0 0 Z M-5.5625 3.8125 C-5.89583333 6.3125 -5.89583333 6.3125 -5.5625 8.8125 C-3.73546773 11.0616908 -3.73546773 11.0616908 -1.0625 11.0625 C1.61046773 11.0616908 1.61046773 11.0616908 3.4375 8.8125 C3.77083333 6.3125 3.77083333 6.3125 3.4375 3.8125 C1.61046773 1.5633092 1.61046773 1.5633092 -1.0625 1.5625 C-3.73546773 1.5633092 -3.73546773 1.5633092 -5.5625 3.8125 Z " fill="#6139B2" transform="translate(33.5625,24.1875)"/>
<path d="M0 0 C3.4375 0.8125 3.4375 0.8125 5.4375 3.8125 C5.25 7.375 5.25 7.375 4.4375 10.8125 C1.4375 12.8125 1.4375 12.8125 -2.125 12.625 C-5.5625 11.8125 -5.5625 11.8125 -7.5625 8.8125 C-7.375 5.25 -7.375 5.25 -6.5625 1.8125 C-3.5625 -0.1875 -3.5625 -0.1875 0 0 Z M-5.5625 3.8125 C-5.89583333 6.3125 -5.89583333 6.3125 -5.5625 8.8125 C-3.73546773 11.0616908 -3.73546773 11.0616908 -1.0625 11.0625 C1.61046773 11.0616908 1.61046773 11.0616908 3.4375 8.8125 C3.77083333 6.3125 3.77083333 6.3125 3.4375 3.8125 C1.61046773 1.5633092 1.61046773 1.5633092 -1.0625 1.5625 C-3.73546773 1.5633092 -3.73546773 1.5633092 -5.5625 3.8125 Z " fill="#6139B2" transform="translate(16.5625,24.1875)"/>
<path d="M0 0 C1.32 0 2.64 0 4 0 C4 5.94 4 11.88 4 18 C3.01 18 2.02 18 1 18 C0.67 12.06 0.34 6.12 0 0 Z " fill="#512DA8" transform="translate(42,19)"/>
<path d="M0 0 C1.32 0 2.64 0 4 0 C3.67 5.94 3.34 11.88 3 18 C2.01 18 1.02 18 0 18 C0 12.06 0 6.12 0 0 Z " fill="#502CA7" transform="translate(2,19)"/>
<path d="M0 0 C1.4540625 0.0309375 1.4540625 0.0309375 2.9375 0.0625 C2.2775 0.454375 1.6175 0.84625 0.9375 1.25 C-1.35416667 2.91666667 -1.35416667 2.91666667 -1.3125 5.75 C-1.23 6.513125 -1.1475 7.27625 -1.0625 8.0625 C-2.0525 7.7325 -3.0425 7.4025 -4.0625 7.0625 C-4.10504356 5.06295254 -4.10330783 3.06208364 -4.0625 1.0625 C-3.0625 0.0625 -3.0625 0.0625 0 0 Z " fill="#6E49B8" transform="translate(24.0625,1.9375)"/>
<path d="M0 0 C1.98 0.495 1.98 0.495 4 1 C3.67 2.32 3.34 3.64 3 5 C1.68 4.67 0.36 4.34 -1 4 C-0.67 2.68 -0.34 1.36 0 0 Z " fill="#6E7AC0" transform="translate(31,28)"/>
<path d="M0 0 C1.98 0.495 1.98 0.495 4 1 C3.67 2.32 3.34 3.64 3 5 C1.68 4.67 0.36 4.34 -1 4 C-0.67 2.68 -0.34 1.36 0 0 Z " fill="#6E7AC0" transform="translate(14,28)"/>
</svg>
