<?xml version="1.0" encoding="UTF-8"?>
<svg version="1.1" xmlns="http://www.w3.org/2000/svg" width="50" height="50">
<path d="M0 0 C3.86436475 2.04155119 6.85070057 4.15388522 9 8 C9.12375 9.03125 9.2475 10.0625 9.375 11.125 C9.58125 12.07375 9.7875 13.0225 10 14 C12.40952023 15.24714403 12.40952023 15.24714403 15 16 C17.04031755 19.06047632 17.31593524 19.93495994 17.375 23.4375 C17.40335938 24.19933594 17.43171875 24.96117188 17.4609375 25.74609375 C16.78876881 29.03288471 15.69784214 29.99182206 13 32 C9.94281499 32.61220271 6.92640058 32.58433218 3.81640625 32.56640625 C2.92388657 32.57260483 2.03136688 32.57880341 1.11180115 32.58518982 C-0.77351797 32.59228534 -2.65889978 32.58911861 -4.54418945 32.57641602 C-7.42451725 32.56256244 -10.30158784 32.59660782 -13.18164062 32.63476562 C-15.01562579 32.63571698 -16.84961502 32.63385711 -18.68359375 32.62890625 C-19.54206406 32.64216446 -20.40053436 32.65542267 -21.28501892 32.66908264 C-25.70214033 32.60053032 -27.45988128 32.42680923 -31.03857422 29.59887695 C-33.60272515 26.20139292 -33.78777533 24.40046326 -33.5546875 20.2734375 C-32.55990607 16.19623474 -29.95586795 13.8294888 -27 11 C-25.7625 9.5459375 -25.7625 9.5459375 -24.5 8.0625 C-21.35773543 5.47013173 -19.96103821 6 -16 6 C-13.73870348 4.54439108 -11.98173848 2.84661995 -10 1 C-6.78548618 -0.60725691 -3.48666924 -0.47397924 0 0 Z M-12 6 C-14.2773501 8.81509993 -14.2773501 8.81509993 -14 12 C-14.8353125 11.2265625 -14.8353125 11.2265625 -15.6875 10.4375 C-17.91774939 8.76902882 -17.91774939 8.76902882 -20.625 9 C-23.21653379 9.76873815 -23.21653379 9.76873815 -24 12.3125 C-24.33 13.199375 -24.66 14.08625 -25 15 C-25.86625 15.61875 -26.7325 16.2375 -27.625 16.875 C-30.3730004 18.87379728 -30.3730004 18.87379728 -30.5 22.5625 C-30.26708053 25.88995533 -30.26708053 25.88995533 -28.75 27.875 C-23.28911254 31.38557051 -15.97193169 30.18601345 -9.72827148 30.18530273 C-7.57320401 30.18748914 -5.4186489 30.20566506 -3.26367188 30.22460938 C-1.88541841 30.22754381 -0.50716252 30.22952827 0.87109375 30.23046875 C2.74172485 30.23663208 2.74172485 30.23663208 4.65014648 30.24291992 C7.90893096 30.00660402 10.11912853 29.51136943 13 28 C14.39935013 25.20129973 14.25265405 23.09501208 14 20 C12.93654948 18.01970318 12.93654948 18.01970318 11 17 C8.37429296 16.74930087 8.37429296 16.74930087 6 17 C6.226875 16.29875 6.45375 15.5975 6.6875 14.875 C7.10886459 10.99844581 6.1114884 9.23761555 4 6 C1.24631394 3.76728157 -0.48258624 3.06467672 -4 2.625 C-7.42422442 3.05302805 -9.25223913 3.93917934 -12 6 Z " fill="#1FDBDC" transform="translate(33,8)"/>
</svg>
