<?xml version="1.0" encoding="UTF-8"?>
<svg version="1.1" xmlns="http://www.w3.org/2000/svg" width="48" height="48">
<path d="M0 0 C2.58797685 1.24222889 4.93494658 2.58867007 7.375 4.125 C10.67287009 6.04816398 13.15015379 6.37559475 17 6 C18.26237731 8.52475462 18.09856404 10.31200466 18.0625 13.125 C18.05347656 14.03507812 18.04445312 14.94515625 18.03515625 15.8828125 C18.02355469 16.58148437 18.01195312 17.28015625 18 18 C19.98 17.67 21.96 17.34 24 17 C24.495 18.98 24.495 18.98 25 21 C21.25 22.125 21.25 22.125 19 21 C17.97895449 21.97850195 16.9793879 22.97980427 16 24 C16 24.33 16 24.66 16 25 C18.97 24.67 21.94 24.34 25 24 C25 25.32 25 26.64 25 28 C21.48926273 29.17024576 19.58876152 28.67289278 16 28 C15.01 28 14.02 28 13 28 C13.495 29.485 13.495 29.485 14 31 C17.63 30.67 21.26 30.34 25 30 C24.67 31.32 24.34 32.64 24 34 C22.62328125 33.91298828 22.62328125 33.91298828 21.21875 33.82421875 C13.95747323 33.55726005 9.51443528 33.61844422 3.6640625 38 C2 39 2 39 -1.125 38.625 C-3.53011303 37.26558829 -5.02900914 36.0984422 -7 34.25 C-7.99 33.5075 -8.98 32.765 -10 32 C-13.23449208 32.63317366 -13.23449208 32.63317366 -16 34 C-16.66 33.67 -17.32 33.34 -18 33 C-18 33.66 -18 34.32 -18 35 C-19.485 35.495 -19.485 35.495 -21 36 C-21.66 35.67 -22.32 35.34 -23 35 C-23 33.68 -23 32.36 -23 31 C-21.01432292 31.06510417 -19.02864583 31.13020833 -17.04296875 31.1953125 C-14.68640281 31.13254462 -14.68640281 31.13254462 -12 29 C-12 28.34 -12 27.68 -12 27 C-14.31 27 -16.62 27 -19 27 C-19 27.66 -19 28.32 -19 29 C-20.32 29 -21.64 29 -23 29 C-22.67 27.35 -22.34 25.7 -22 24 C-19.36 24.33 -16.72 24.66 -14 25 C-14.66 24.01 -15.32 23.02 -16 22 C-18.58380177 21.74969023 -18.58380177 21.74969023 -21 22 C-21.66 20.68 -22.32 19.36 -23 18 C-21.1875 17.375 -21.1875 17.375 -19 17 C-18.01 17.66 -17.02 18.32 -16 19 C-16 14.71 -16 10.42 -16 6 C-14.96875 6.061875 -13.9375 6.12375 -12.875 6.1875 C-7.95903288 5.94963062 -4.78070843 4.60263759 -1.125 1.3125 C-0.75375 0.879375 -0.3825 0.44625 0 0 Z " fill="#176460" transform="translate(23,4)"/>
<path d="M0 0 C2.58797685 1.24222889 4.93494658 2.58867007 7.375 4.125 C10.67287009 6.04816398 13.15015379 6.37559475 17 6 C18.26237731 8.52475462 18.09856404 10.31200466 18.0625 13.125 C18.05347656 14.03507812 18.04445312 14.94515625 18.03515625 15.8828125 C18.02355469 16.58148437 18.01195312 17.28015625 18 18 C19.98 17.67 21.96 17.34 24 17 C24.495 18.98 24.495 18.98 25 21 C21.25 22.125 21.25 22.125 19 21 C17.97895449 21.97850195 16.9793879 22.97980427 16 24 C16 24.33 16 24.66 16 25 C18.97 24.67 21.94 24.34 25 24 C25 25.32 25 26.64 25 28 C21.48926273 29.17024576 19.58876152 28.67289278 16 28 C15.01 28 14.02 28 13 28 C13.495 29.485 13.495 29.485 14 31 C17.63 30.67 21.26 30.34 25 30 C24.67 31.32 24.34 32.64 24 34 C22.62328125 33.91298828 22.62328125 33.91298828 21.21875 33.82421875 C13.95747323 33.55726005 9.51443528 33.61844422 3.6640625 38 C2 39 2 39 -1.125 38.625 C-3.53011303 37.26558829 -5.02900914 36.0984422 -7 34.25 C-7.99 33.5075 -8.98 32.765 -10 32 C-13.23449208 32.63317366 -13.23449208 32.63317366 -16 34 C-16.66 33.67 -17.32 33.34 -18 33 C-18 33.66 -18 34.32 -18 35 C-19.485 35.495 -19.485 35.495 -21 36 C-21.66 35.67 -22.32 35.34 -23 35 C-23 33.68 -23 32.36 -23 31 C-21.01432292 31.06510417 -19.02864583 31.13020833 -17.04296875 31.1953125 C-14.68640281 31.13254462 -14.68640281 31.13254462 -12 29 C-12 28.34 -12 27.68 -12 27 C-14.31 27 -16.62 27 -19 27 C-19 27.66 -19 28.32 -19 29 C-20.32 29 -21.64 29 -23 29 C-22.67 27.35 -22.34 25.7 -22 24 C-19.36 24.33 -16.72 24.66 -14 25 C-14.66 24.01 -15.32 23.02 -16 22 C-18.58380177 21.74969023 -18.58380177 21.74969023 -21 22 C-21.66 20.68 -22.32 19.36 -23 18 C-21.1875 17.375 -21.1875 17.375 -19 17 C-18.01 17.66 -17.02 18.32 -16 19 C-16 14.71 -16 10.42 -16 6 C-14.96875 6.061875 -13.9375 6.12375 -12.875 6.1875 C-7.95903288 5.94963062 -4.78070843 4.60263759 -1.125 1.3125 C-0.75375 0.879375 -0.3825 0.44625 0 0 Z M1 2 C0.50371094 2.34933594 0.00742187 2.69867188 -0.50390625 3.05859375 C-5.10584605 6.14110751 -8.46239061 7.65389941 -14 8 C-14.71240006 19.20981135 -14.71240006 19.20981135 -10 29 C-7.24383503 32.0235541 -4.53374535 34.90835646 -1 37 C3.95683166 36.81612989 6.70633346 34.25998576 10.19921875 31.00390625 C15.95077437 24.60358514 15.63699522 16.21141847 16 8 C15.41992188 7.90203125 14.83984375 7.8040625 14.2421875 7.703125 C8.90353568 6.68120485 5.31114768 5.31626744 1 2 Z " fill="#100C01" transform="translate(23,4)"/>
<path d="M0 0 C0.49628906 0.34933594 0.99257813 0.69867188 1.50390625 1.05859375 C6.10584605 4.14110751 9.46239061 5.65389941 15 6 C14.19225314 24.27179099 14.19225314 24.27179099 6.625 31.5625 C4.3515625 33.62890625 4.3515625 33.62890625 2 35 C-0.7890625 34.71484375 -0.7890625 34.71484375 -3 34 C-2.42378906 33.89558594 -1.84757812 33.79117188 -1.25390625 33.68359375 C3.06611615 32.37336165 6.11588198 29.38730457 9 26 C11.69392324 20.35558941 12.4285276 14.17190195 13 8 C12.154375 7.9175 11.30875 7.835 10.4375 7.75 C7.15116763 7.03298203 6.27475685 6.532061 3.75 4.625 C2.03874351 3.42807282 2.03874351 3.42807282 0 3 C-2.81415738 3.94820141 -5.13658975 5.21889263 -7.66796875 6.765625 C-10 8 -10 8 -14 8 C-13.68985608 10.08368538 -13.3767948 12.16693668 -13.0625 14.25 C-12.88847656 15.41015625 -12.71445313 16.5703125 -12.53515625 17.765625 C-12.1272264 20.23106961 -11.66098697 22.59424562 -11 25 C-13.2477975 22.94766315 -14.0022242 21.99332739 -15 19 C-15.06937062 16.77181559 -15.08457084 14.54165476 -15.0625 12.3125 C-15.05347656 11.13300781 -15.04445313 9.95351562 -15.03515625 8.73828125 C-15.02355469 7.83464844 -15.01195312 6.93101563 -15 6 C-14.12988281 5.85304688 -14.12988281 5.85304688 -13.2421875 5.703125 C-7.90353568 4.68120485 -4.31114768 3.31626744 0 0 Z " fill="#CC9A0D" transform="translate(24,6)"/>
<path d="M0 0 C2.58797685 1.24222889 4.93494658 2.58867007 7.375 4.125 C10.67287009 6.04816398 13.15015379 6.37559475 17 6 C17 6.99 17 7.98 17 9 C10.70214541 8.05407718 6.03933027 6.97841864 1 3 C0.5153125 3.3609375 0.030625 3.721875 -0.46875 4.09375 C-5.60955411 7.65276823 -8.7706996 8.55618754 -15 8 C-15 11.3 -15 14.6 -15 18 C-15.33 18 -15.66 18 -16 18 C-16 14.04 -16 10.08 -16 6 C-14.96875 6.061875 -13.9375 6.12375 -12.875 6.1875 C-7.95903288 5.94963062 -4.78070843 4.60263759 -1.125 1.3125 C-0.75375 0.879375 -0.3825 0.44625 0 0 Z " fill="#050400" transform="translate(23,4)"/>
<path d="M0 0 C0.33 0 0.66 0 1 0 C1.33 5.28 1.66 10.56 2 16 C1.01 15.34 0.02 14.68 -1 14 C-3.62531524 13.83286431 -3.62531524 13.83286431 -6 14 C-6.66 12.68 -7.32 11.36 -8 10 C-4.98968256 9.06576355 -4.13349732 8.95550089 -1 10 C-0.67 6.7 -0.34 3.4 0 0 Z " fill="#1F1802" transform="translate(8,12)"/>
<path d="M0 0 C0 1.32 0 2.64 0 4 C-3.76624671 5.25541557 -5.37188934 4.37061958 -9 3 C-7.14340032 -0.71319936 -3.69365381 -0.09982848 0 0 Z " fill="#201802" transform="translate(48,28)"/>
<path d="M0 0 C1.98 0 3.96 0 6 0 C6.33 0.66 6.66 1.32 7 2 C6.34 2 5.68 2 5 2 C5 2.66 5 3.32 5 4 C4.01 4.33 3.02 4.66 2 5 C1.34 4.67 0.68 4.34 0 4 C0 2.68 0 1.36 0 0 Z " fill="#211902" transform="translate(0,35)"/>
<path d="M0 0 C0.99 0.33 1.98 0.66 3 1 C3 2.98 3 4.96 3 7 C1.68 7 0.36 7 -1 7 C-1.04254356 5.00045254 -1.04080783 2.99958364 -1 1 C-0.67 0.67 -0.34 0.34 0 0 Z " fill="#030E0F" transform="translate(23,22)"/>
<path d="M0 0 C1.32 0.66 2.64 1.32 4 2 C3.67 2.66 3.34 3.32 3 4 C0.6859378 4.73075648 -1.64828869 5.40138258 -4 6 C-3.0022242 3.00667261 -2.2477975 2.05233685 0 0 Z " fill="#010100" transform="translate(11,32)"/>
<path d="M0 0 C0.5534764 2.07553648 1 3.84365964 1 6 C0.01 6 -0.98 6 -2 6 C-2 6.66 -2 7.32 -2 8 C-2.66 7.67 -3.32 7.34 -4 7 C-2.68 4.69 -1.36 2.38 0 0 Z " fill="#010100" transform="translate(38,26)"/>
<path d="M0 0 C0.99 0.33 1.98 0.66 3 1 C3 2.32 3 3.64 3 5 C1.68 5 0.36 5 -1 5 C-0.67 3.35 -0.34 1.7 0 0 Z " fill="#201802" transform="translate(1,28)"/>
</svg>
