<?xml version="1.0" encoding="UTF-8"?>
<svg version="1.1" xmlns="http://www.w3.org/2000/svg" width="48" height="48">
<path d="M0 0 C2.64 0 5.28 0 8 0 C8 9.9 8 19.8 8 30 C-5.2 30 -18.4 30 -32 30 C-32 28.02 -32 26.04 -32 24 C-29.36 24 -26.72 24 -24 24 C-24 22.02 -24 20.04 -24 18 C-21.36 18 -18.72 18 -16 18 C-16 16.02 -16 14.04 -16 12 C-13.36 12 -10.72 12 -8 12 C-8 10.02 -8 8.04 -8 6 C-5.36 6 -2.72 6 0 6 C0 4.02 0 2.04 0 0 Z " fill="#35C0F0" transform="translate(36,12)"/>
<path d="M0 0 C2.64 0 5.28 0 8 0 C8 9.9 8 19.8 8 30 C5.36 30 2.72 30 0 30 C0 20.1 0 10.2 0 0 Z " fill="#4FE6FF" transform="translate(36,12)"/>
<path d="M0 0 C2.64 0 5.28 0 8 0 C8 3.96 8 7.92 8 12 C2.72 12 -2.56 12 -8 12 C-8 10.02 -8 8.04 -8 6 C-5.36 6 -2.72 6 0 6 C0 4.02 0 2.04 0 0 Z " fill="#0078D4" transform="translate(12,30)"/>
<path d="M0 0 C2.64 0 5.28 0 8 0 C8 5.94 8 11.88 8 18 C5.36 18 2.72 18 0 18 C0 12.06 0 6.12 0 0 Z " fill="#189BE2" transform="translate(20,24)"/>
<path d="M0 0 C2.97 0 5.94 0 9 0 C9 2.97 9 5.94 9 9 C7.68 8.67 6.36 8.34 5 8 C3.12407008 9.42021025 3.12407008 9.42021025 1.5 11.4375 C-0.21875 13.43359375 -0.21875 13.43359375 -2 15 C-3.32 15 -4.64 15 -6 15 C-5.77130914 11.11225541 -4.65873972 9.46992989 -1.875 6.9375 C-1.31554687 6.47214844 -0.75609375 6.00679687 -0.1796875 5.52734375 C0.20960937 5.02332031 0.59890625 4.51929688 1 4 C0.67 2.68 0.34 1.36 0 0 Z " fill="#4FE6FF" transform="translate(13,7)"/>
<path d="M0 0 C2.64 0 5.28 0 8 0 C8 1.98 8 3.96 8 6 C5.36 6 2.72 6 0 6 C0 4.02 0 2.04 0 0 Z " fill="#0C62AA" transform="translate(4,36)"/>
</svg>
