<?xml version="1.0" encoding="UTF-8"?>
<svg version="1.1" xmlns="http://www.w3.org/2000/svg" width="48" height="48">
<path d="M0 0 C1.0209375 0.2165625 1.0209375 0.2165625 2.0625 0.4375 C2.0625 1.0975 2.0625 1.7575 2.0625 2.4375 C9.09032042 3.4765717 9.09032042 3.4765717 16.0625 2.4375 C16.0625 1.7775 16.0625 1.1175 16.0625 0.4375 C19.27283545 0.07955319 20.61471312 0.08320708 23.1953125 2.125 C30.0095422 10.03485094 32.33795366 15.59060965 32.55859375 26.01953125 C32.0625 28.4375 32.0625 28.4375 30.265625 30.2890625 C27.34905611 31.8094016 25.36332211 31.28711033 22.27734375 30.390625 C19.72742957 29.29330743 17.6864999 27.87322421 15.4375 26.25 C12.07031398 23.89539606 12.07031398 23.89539606 8.0625 23.1875 C4.42331155 24.70382852 1.46266308 26.80965516 -1.76171875 29.05859375 C-4.54028376 30.81951556 -6.64036078 31.51417766 -9.9375 31.4375 C-12.07421875 30.25 -12.07421875 30.25 -13.9375 28.4375 C-15.57906874 21.1832146 -13.59582 13.74863684 -9.9375 7.4375 C-7.11353029 3.70343579 -4.75578593 0.70830854 0 0 Z " fill="#CDCDCD" transform="translate(14.9375,9.5625)"/>
<path d="M0 0 C3.16242675 2.58744007 4.08288297 5.04934204 5 9 C5.35530756 12.70686539 5.68021036 16.32801697 5 20 C3.20703125 21.859375 3.20703125 21.859375 1 23 C-4.23565504 22.37882059 -7.37124171 20.88266619 -11.625 17.8125 C-14.99218602 15.45789606 -14.99218602 15.45789606 -19 14.75 C-22.63918845 16.26632852 -25.59983692 18.37215516 -28.82421875 20.62109375 C-31.60278376 22.38201556 -33.70286078 23.07667766 -37 23 C-39.14453125 21.828125 -39.14453125 21.828125 -41 20 C-42.06124672 14.27106641 -41.30634149 8.33341469 -39 3 C-38.12435592 5.98950363 -37.91780862 8.57963862 -38 11.6875 C-38.03763031 13.12450738 -38.04662859 14.56325645 -38 16 C-37.02097329 17.20754469 -37.02097329 17.20754469 -35.1796875 17.0546875 C-29.74972063 16.63133415 -26.85471321 15.4466685 -22.6171875 12.09765625 C-21 11 -21 11 -17.9375 10.375 C-14.58130329 11.08908441 -13.17182502 12.51827584 -10.7109375 14.81640625 C-7.54185779 17.00871481 -3.77047688 17.10054605 0 17 C0.99 16.67 1.98 16.34 3 16 C3 13.03 3 10.06 3 7 C2.34 7 1.68 7 1 7 C0.505 3.535 0.505 3.535 0 0 Z " fill="#707070" transform="translate(42,18)"/>
<path d="M0 0 C3.375 0.6875 3.375 0.6875 4.375 1.6875 C4.83006692 7.83090344 4.83006692 7.83090344 3.3125 10.6875 C0.14703476 12.32128851 -2.27520286 11.54017564 -5.625 10.6875 C-7.625 7.6875 -7.625 7.6875 -7.4375 4.625 C-6.18413456 0.09360187 -4.55654764 -0.39280583 0 0 Z " fill="#4C4C4C" transform="translate(15.625,15.3125)"/>
<path d="M0 0 C1.8125 1.25 1.8125 1.25 3 3 C3.42317323 5.82115488 3.38718434 7.33950907 1.9375 9.8125 C-1.05550269 11.646921 -3.57816663 11.31107576 -7 11 C-9 9 -9 9 -9.375 5.5625 C-9 2 -9 2 -7.3125 0 C-4.35711914 -1.27800253 -3.01001617 -1.08051862 0 0 Z " fill="#4D6F6D" transform="translate(37,16)"/>
<path d="M0 0 C0.33 0 0.66 0 1 0 C1.144375 1.134375 1.28875 2.26875 1.4375 3.4375 C1.61171478 6.80777201 1.61171478 6.80777201 3 8 C6.51029139 8.5014702 8.99848713 8.68988754 11.99609375 6.625 C12.65738281 6.068125 13.31867187 5.51125 14 4.9375 C17.05753059 2.42616905 17.6498759 2.01147948 21.8125 1.875 C25.20750955 3.07323866 26.29471157 3.8903564 28 7 C27.46375 6.67 26.9275 6.34 26.375 6 C23.24391472 4.6816483 21.3844314 4.5354702 18 5 C16.32964902 6.0825166 16.32964902 6.0825166 14.6875 7.4375 C10.84837342 10.4539566 6.87208102 11.38698811 2 11 C0 9 0 9 -0.1953125 6.8359375 C-0.17210937 6.02382813 -0.14890625 5.21171875 -0.125 4.375 C-0.10695312 3.55773437 -0.08890625 2.74046875 -0.0703125 1.8984375 C-0.04710937 1.27195312 -0.02390625 0.64546875 0 0 Z " fill="#B2B2B2" transform="translate(3,25)"/>
<path d="M0 0 C0.93423645 3.01031744 1.04449911 3.86650268 0 7 C-0.25003964 10.54178598 -0.25003964 10.54178598 0 14 C1.92768218 16.37221208 1.92768218 16.37221208 5.375 16.1875 C8.14727178 16.04410663 10.38405444 15.83710258 13 15 C10.64997608 18.23128289 7.69782794 18.90236187 4.03515625 19.9609375 C2 20 2 20 -0.23046875 18.87109375 C-2 17 -2 17 -2.4609375 14.51171875 C-2.30320764 9.32814203 -2.09292092 4.83987963 0 0 Z " fill="#6D6D6D" transform="translate(3,21)"/>
<path d="M0 0 C2.99637703 2.73582251 3.9090286 4.72465088 4.203125 8.84765625 C4.21859375 9.90855469 4.2340625 10.96945313 4.25 12.0625 C4.28867187 13.65771484 4.28867187 13.65771484 4.328125 15.28515625 C4.21984375 16.18105469 4.1115625 17.07695313 4 18 C0.30513897 20.46324069 -1.63293092 20.38991688 -6 20 C-7.71875 18.48046875 -7.71875 18.48046875 -9 17 C-8.38511719 17.01160156 -7.77023438 17.02320312 -7.13671875 17.03515625 C-5.92435547 17.04869141 -5.92435547 17.04869141 -4.6875 17.0625 C-3.88699219 17.07410156 -3.08648437 17.08570312 -2.26171875 17.09765625 C0.16861334 17.09657855 0.16861334 17.09657855 3 16 C3 13.03 3 10.06 3 7 C2.34 7 1.68 7 1 7 C0.67 4.69 0.34 2.38 0 0 Z " fill="#8D8D8D" transform="translate(42,18)"/>
<path d="M0 0 C0.33 0 0.66 0 1 0 C1.66 2.31 2.32 4.62 3 7 C10.13601646 6.71717874 10.13601646 6.71717874 16 3 C16.66 3.33 17.32 3.66 18 4 C14.16644306 7.3456497 11.31676703 9.8057229 6.1875 10.5625 C3 10 3 10 1.0625 8.9375 C-0.55479605 5.98831309 -0.18630138 3.29132441 0 0 Z " fill="#8E8E8E" transform="translate(2,28)"/>
<path d="M0 0 C0.99 0 1.98 0 3 0 C3 0.66 3 1.32 3 2 C3.99 2 4.98 2 6 2 C6 2.99 6 3.98 6 5 C4.68 5 3.36 5 2 5 C2 5.99 2 6.98 2 8 C1.34 8 0.68 8 0 8 C0 7.01 0 6.02 0 5 C-0.99 5 -1.98 5 -3 5 C-3 4.34 -3 3.68 -3 3 C-2.01 3 -1.02 3 0 3 C0 2.01 0 1.02 0 0 Z " fill="#9E9E9E" transform="translate(13,17)"/>
<path d="M0 0 C0.99 0 1.98 0 3 0 C3.125 2.375 3.125 2.375 3 5 C1 7 1 7 -2.625 7.125 C-3.73875 7.08375 -4.8525 7.0425 -6 7 C-6.33 6.01 -6.66 5.02 -7 4 C-6.01 4 -5.02 4 -4 4 C-4 4.66 -4 5.32 -4 6 C-3.01 6 -2.02 6 -1 6 C-1.020625 5.195625 -1.04125 4.39125 -1.0625 3.5625 C-1 1 -1 1 0 0 Z " fill="#643C2E" transform="translate(36,20)"/>
<path d="M0 0 C0.99 0.66 1.98 1.32 3 2 C2.34 2 1.68 2 1 2 C1 2.99 1 3.98 1 5 C0.01 5 -0.98 5 -2 5 C-2 5.66 -2 6.32 -2 7 C-1.01 7.33 -0.02 7.66 1 8 C-0.98 8.99 -0.98 8.99 -3 10 C-3.75 7.25 -3.75 7.25 -4 4 C-2.0625 1.625 -2.0625 1.625 0 0 Z " fill="#666666" transform="translate(12,15)"/>
<path d="M0 0 C4.75 0.75 4.75 0.75 7 3 C7.125 5.625 7.125 5.625 7 8 C6.67 6.68 6.34 5.36 6 4 C5.1028125 4.309375 5.1028125 4.309375 4.1875 4.625 C2 5 2 5 -1 3 C-0.67 2.01 -0.34 1.02 0 0 Z " fill="#8E7B43" transform="translate(33,16)"/>
</svg>
