<?xml version="1.0" standalone="no"?>
<!DOCTYPE svg PUBLIC "-//W3C//DTD SVG 20010904//EN"
 "http://www.w3.org/TR/2001/REC-SVG-20010904/DTD/svg10.dtd">
<svg version="1.0" xmlns="http://www.w3.org/2000/svg"
 width="48.000000pt" height="48.000000pt" viewBox="0 0 48.000000 48.000000"
 preserveAspectRatio="xMidYMid meet">

<g transform="translate(0.000000,48.000000) scale(0.100000,-0.100000)"
fill="#000000" stroke="none">
<path d="M104 408 c-12 -5 -27 -21 -33 -34 -12 -26 -16 -236 -5 -247 4 -3 15
4 25 17 15 19 19 41 19 105 0 112 10 121 130 121 122 0 130 -8 130 -130 0 -83
-2 -93 -24 -115 -30 -30 -25 -69 8 -59 11 3 30 15 41 25 17 17 20 35 23 144
l4 125 -30 30 -30 30 -119 -1 c-65 0 -128 -5 -139 -11z"/>
<path d="M150 330 c-16 -16 -20 -33 -20 -84 0 -60 1 -63 23 -59 19 4 22 9 19
43 -5 47 23 80 68 80 59 0 90 -67 54 -118 -12 -18 -13 -26 -4 -37 34 -41 60
-2 60 89 0 91 -16 106 -110 106 -57 0 -74 -4 -90 -20z m180 -15 c0 -8 -7 -15
-15 -15 -8 0 -15 7 -15 15 0 8 7 15 15 15 8 0 15 -7 15 -15z"/>
<path d="M222 283 c-22 -9 -34 -41 -23 -62 15 -28 49 -33 72 -10 24 24 24 34
-1 59 -21 21 -26 22 -48 13z"/>
</g>
</svg>
