<?xml version="1.0" encoding="UTF-8"?>
<svg version="1.1" xmlns="http://www.w3.org/2000/svg" width="53" height="53">
<path d="M0 0 C4.1400373 2.19285492 7.84817632 5.09980395 9.96484375 9.31640625 C10.65451236 12.35930777 11.0973789 15.37487612 11.49609375 18.46875 C12.04742891 21.8181111 13.30529374 24.3744767 14.96484375 27.31640625 C14.96484375 28.30640625 14.96484375 29.29640625 14.96484375 30.31640625 C14.30484375 30.31640625 13.64484375 30.31640625 12.96484375 30.31640625 C13.01125 30.9196875 13.05765625 31.52296875 13.10546875 32.14453125 C13.39732813 38.60713186 13.39732813 38.60713186 11.40234375 41.87890625 C8.14331994 43.80089465 5.67994489 43.60218326 1.96484375 43.31640625 C1.98546875 44.28578125 2.00609375 45.25515625 2.02734375 46.25390625 C1.96484375 49.31640625 1.96484375 49.31640625 0.96484375 50.31640625 C-2.50724432 50.56739549 -5.99256245 50.50162721 -9.47265625 50.50390625 C-10.45298828 50.51615234 -11.43332031 50.52839844 -12.44335938 50.54101562 C-13.37986328 50.54294922 -14.31636719 50.54488281 -15.28125 50.546875 C-16.14419678 50.55098389 -17.00714355 50.55509277 -17.89624023 50.55932617 C-20.03515625 50.31640625 -20.03515625 50.31640625 -22.03515625 48.31640625 C-22.23046875 46.15234375 -22.23046875 46.15234375 -22.16015625 43.69140625 C-22.13308594 42.46550781 -22.13308594 42.46550781 -22.10546875 41.21484375 C-22.07066406 40.27511719 -22.07066406 40.27511719 -22.03515625 39.31640625 C-26.37699827 39.50104991 -26.37699827 39.50104991 -30.03515625 41.31640625 C-31.7013274 41.35704457 -33.3690372 41.35912725 -35.03515625 41.31640625 C-35.66015625 38.94140625 -35.66015625 38.94140625 -36.03515625 36.31640625 C-35.37515625 35.65640625 -34.71515625 34.99640625 -34.03515625 34.31640625 C-31.41015625 34.69140625 -31.41015625 34.69140625 -29.03515625 35.31640625 C-29.03515625 35.97640625 -29.03515625 36.63640625 -29.03515625 37.31640625 C-27.89175781 37.30480469 -26.74835937 37.29320312 -25.5703125 37.28125 C-24.07942871 37.27187337 -22.58854316 37.26277304 -21.09765625 37.25390625 C-20.34291016 37.24552734 -19.58816406 37.23714844 -18.81054688 37.22851562 C-16.88521312 37.21988184 -14.95980044 37.26416292 -13.03515625 37.31640625 C-12.03515625 38.31640625 -12.03515625 38.31640625 -11.9375 40.3828125 C-11.94910156 41.20652344 -11.96070312 42.03023437 -11.97265625 42.87890625 C-11.98167969 43.70519531 -11.99070312 44.53148437 -12 45.3828125 C-12.01160156 46.02089844 -12.02320312 46.65898438 -12.03515625 47.31640625 C-10.38515625 47.31640625 -8.73515625 47.31640625 -7.03515625 47.31640625 C-7.03515625 42.36640625 -7.03515625 37.41640625 -7.03515625 32.31640625 C-10.99515625 32.31640625 -14.95515625 32.31640625 -19.03515625 32.31640625 C-19.03515625 31.32640625 -19.03515625 30.33640625 -19.03515625 29.31640625 C-17.09834464 29.23533042 -15.16056285 29.1771815 -13.22265625 29.12890625 C-12.14371094 29.09410156 -11.06476562 29.05929688 -9.953125 29.0234375 C-7.03515625 29.31640625 -7.03515625 29.31640625 -5.16015625 30.31640625 C-3.34594984 33.54166209 -3.72530943 36.91192913 -3.84765625 40.50390625 C-3.86795898 41.62829102 -3.86795898 41.62829102 -3.88867188 42.77539062 C-3.92397086 44.62270392 -3.97777708 46.46964691 -4.03515625 48.31640625 C-3.04515625 47.98640625 -2.05515625 47.65640625 -1.03515625 47.31640625 C-1.05578125 46.34703125 -1.07640625 45.37765625 -1.09765625 44.37890625 C-1.03515625 41.31640625 -1.03515625 41.31640625 -0.03515625 40.31640625 C1.47953823 40.0844776 3.00238937 39.90425387 4.52734375 39.75390625 C5.35363281 39.67011719 6.17992187 39.58632813 7.03125 39.5 C7.66933594 39.43941406 8.30742188 39.37882812 8.96484375 39.31640625 C9.29484375 38.32640625 9.62484375 37.33640625 9.96484375 36.31640625 C8.97484375 35.98640625 7.98484375 35.65640625 6.96484375 35.31640625 C8.71484375 29.56640625 8.71484375 29.56640625 10.96484375 27.31640625 C10.30484375 26.32640625 9.64484375 25.33640625 8.96484375 24.31640625 C8.61434807 22.38868001 8.32955685 20.44851761 8.08984375 18.50390625 C7.13479167 12.37380455 5.56227611 8.60825833 0.83984375 4.44140625 C-4.57536019 2.32241341 -9.89474112 2.68220918 -15.41015625 4.31640625 C-19.0306349 7.07486618 -20.63920141 10.01749987 -22.03515625 14.31640625 C-22.5478308 19.2722602 -21.61515961 22.66933755 -20.03515625 27.31640625 C-19.58748612 30.30743308 -19.289598 33.30328024 -19.03515625 36.31640625 C-20.02515625 36.31640625 -21.01515625 36.31640625 -22.03515625 36.31640625 C-22.36515625 34.99640625 -22.69515625 33.67640625 -23.03515625 32.31640625 C-24.33453125 32.33703125 -25.63390625 32.35765625 -26.97265625 32.37890625 C-28.32681258 32.40040079 -29.68271708 32.38788824 -31.03515625 32.31640625 C-32.03515625 31.31640625 -32.03515625 31.31640625 -32.1328125 29.03125 C-32.12121094 28.11472656 -32.10960937 27.19820312 -32.09765625 26.25390625 C-32.08863281 25.33480469 -32.07960938 24.41570313 -32.0703125 23.46875 C-32.05291016 22.40333984 -32.05291016 22.40333984 -32.03515625 21.31640625 C-32.69515625 21.31640625 -33.35515625 21.31640625 -34.03515625 21.31640625 C-34.66015625 19.50390625 -34.66015625 19.50390625 -35.03515625 17.31640625 C-34.37515625 16.32640625 -33.71515625 15.33640625 -33.03515625 14.31640625 C-31.38515625 14.64640625 -29.73515625 14.97640625 -28.03515625 15.31640625 C-26.91015625 19.06640625 -26.91015625 19.06640625 -28.03515625 21.31640625 C-28.69515625 21.31640625 -29.35515625 21.31640625 -30.03515625 21.31640625 C-30.03515625 23.95640625 -30.03515625 26.59640625 -30.03515625 29.31640625 C-27.72515625 29.31640625 -25.41515625 29.31640625 -23.03515625 29.31640625 C-23.26332031 28.77113281 -23.49148437 28.22585937 -23.7265625 27.6640625 C-26.19401879 21.19113904 -26.78866545 15.8990308 -24.27734375 9.3359375 C-19.6900283 0.29622764 -9.46000813 -3.17754592 0 0 Z M-32.03515625 17.31640625 C-32.03515625 17.97640625 -32.03515625 18.63640625 -32.03515625 19.31640625 C-31.37515625 19.31640625 -30.71515625 19.31640625 -30.03515625 19.31640625 C-30.03515625 18.65640625 -30.03515625 17.99640625 -30.03515625 17.31640625 C-30.69515625 17.31640625 -31.35515625 17.31640625 -32.03515625 17.31640625 Z M-33.03515625 37.31640625 C-32.70515625 37.97640625 -32.37515625 38.63640625 -32.03515625 39.31640625 C-31.70515625 38.65640625 -31.37515625 37.99640625 -31.03515625 37.31640625 C-31.69515625 37.31640625 -32.35515625 37.31640625 -33.03515625 37.31640625 Z M-19.03515625 39.31640625 C-19.03515625 41.95640625 -19.03515625 44.59640625 -19.03515625 47.31640625 C-17.38515625 47.31640625 -15.73515625 47.31640625 -14.03515625 47.31640625 C-14.03515625 45.00640625 -14.03515625 42.69640625 -14.03515625 40.31640625 C-15.68515625 39.98640625 -17.33515625 39.65640625 -19.03515625 39.31640625 Z " fill="#000000" transform="translate(37.03515625,1.68359375)"/>
<path d="M0 0 C1.98 0 3.96 0 6 0 C6.33 0.99 6.66 1.98 7 3 C7.94875 3.061875 8.8975 3.12375 9.875 3.1875 C10.90625 3.455625 11.9375 3.72375 13 4 C14.375 6.5625 14.375 6.5625 15 9 C14.67 9.33 14.34 9.66 14 10 C13.80850919 13.63194641 13.80850919 13.63194641 15 17 C14.34 17.99 13.68 18.98 13 20 C9.375 20.6875 9.375 20.6875 6 21 C5.67 22.32 5.34 23.64 5 25 C3.35 24.67 1.7 24.34 0 24 C0 23.01 0 22.02 0 21 C-1.11375 20.87625 -2.2275 20.7525 -3.375 20.625 C-7 20 -7 20 -9 18 C-8.77614278 15.98528502 -8.54581684 13.96854744 -8.19140625 11.97265625 C-7.84464352 9.7887865 -7.84464352 9.7887865 -9 7 C-7 4 -7 4 -3.875 3.3125 C-2.92625 3.209375 -1.9775 3.10625 -1 3 C-0.67 2.01 -0.34 1.02 0 0 Z M2 2 C1.67 2.99 1.34 3.98 1 5 C-1.4375 6.125 -1.4375 6.125 -4 7 C-4.99 7.495 -4.99 7.495 -6 8 C-5.67 8.33 -5.34 8.66 -5 9 C-4.85884839 11.67058851 -4.95752893 14.32432238 -5 17 C-3.865625 17.268125 -2.73125 17.53625 -1.5625 17.8125 C-0.386875 18.204375 0.78875 18.59625 2 19 C2.33 19.99 2.66 20.98 3 22 C3.33 21.01 3.66 20.02 4 19 C7.5625 17.8125 7.5625 17.8125 11 17 C10.98674949 13.8993817 10.81364283 11.00063184 10 8 C7.18822143 5.48571778 7.18822143 5.48571778 4 4 C3.34 3.34 2.68 2.68 2 2 Z " fill="#000000" transform="translate(27,5)"/>
<path d="M0 0 C6.57692308 0.57692308 6.57692308 0.57692308 8 2 C8.3125 4.875 8.3125 4.875 8 8 C6.375 10 6.375 10 4 11 C0.75 10.1875 0.75 10.1875 -2 9 C-2.125 5.625 -2.125 5.625 -2 2 C-1.34 1.34 -0.68 0.68 0 0 Z M1 3 C1 4.32 1 5.64 1 7 C2.32 7 3.64 7 5 7 C5.33 6.34 5.66 5.68 6 5 C5.67 4.34 5.34 3.68 5 3 C3.68 3 2.36 3 1 3 Z " fill="#000000" transform="translate(27,12)"/>
</svg>
